<svg xmlns="http://www.w3.org/2000/svg" viewBox="0 0 128 128"><defs><clipPath id="a"><path d="M0 800h800V0H0v800z"/></clipPath><clipPath id="c"><path d="M0 800h800V0H0v800z"/></clipPath><clipPath id="e"><path d="M0 800h800V0H0v800z"/></clipPath><linearGradient id="b" x2="1" gradientTransform="matrix(0 -156.39258 -156.39258 0 150.95 519.03)" gradientUnits="userSpaceOnUse"><stop offset="0" stop-color="#f37877"/><stop offset=".4" stop-color="#f37877"/><stop offset="1" stop-color="#fbcdce"/></linearGradient><linearGradient id="d" x2="1" gradientTransform="rotate(-90 410.15 94.78) scale(204.2578)" gradientUnits="userSpaceOnUse"><stop offset="0" stop-color="#f37877"/><stop offset=".4" stop-color="#f37877"/><stop offset="1" stop-color="#fbcdce"/></linearGradient></defs><g clip-path="url(#a)" transform="matrix(.16317 0 0 -.16317 .65 131.86)"><path fill="#fe4f4d" d="M381.42 246.3S347.46 80.3 406.58-7.67h404.09v226.38c-79.67-63.08-210.1-40.91-210.1-40.91s-13.03 44.16-5.64 93.18c-26.5 44.34-213.5-24.68-213.5-24.68"/><path fill="none" stroke="#cf0800" stroke-miterlimit="10" stroke-width="10" d="M381.42 246.3S344.94 89.66 406.58-7.67"/><path fill="#cf363a" d="M599.92 270.68l-.15-1.64-.35-4.7a498.3 498.3 0 01-1.02-40.87 404.64 404.64 0 011.42-27.44c.2-2.33.46-4.65.7-6.97.28-2.31.54-4.62.85-6.9.65-4.56 1.36-9.04 2.22-13.34.43-2.15.84-4.27 1.35-6.31l.72-3.05c.25-1 .54-1.98.8-2.95l.78-2.87.87-2.75.84-2.66.92-2.52.9-2.42c.29-.8.64-1.53.95-2.27.64-1.46 1.18-2.9 1.85-4.15l1.8-3.58 1.73-2.93.74-1.26c.24-.39.5-.73.73-1.06l1.16-1.67.97-1.39-1.06 1.32-1.28 1.6c-.24.31-.53.64-.8 1.01l-.82 1.21-1.94 2.84-2.04 3.48c-.77 1.23-1.4 2.63-2.16 4.07-.36.72-.76 1.45-1.11 2.23l-1.06 2.38-1.1 2.5-1.04 2.63-1.06 2.73-.99 2.85c-.33.96-.68 1.94-1 2.93l-.93 3.04c-.66 2.04-1.22 4.16-1.8 6.3-1.16 4.3-2.18 8.8-3.14 13.37-.47 2.3-.9 4.6-1.34 6.93-.39 2.33-.81 4.67-1.17 7.02a406.62 406.62 0 00-3.28 27.7 472.2 472.2 0 00-1.43 24.3c-.25 7.13-.3 13.08-.3 17.26l.05 4.85.04 1.75 9.98-.6z"/><path fill="none" stroke="#cf0800" stroke-miterlimit="10" stroke-width="10" d="M600.56 177.8s127.56-23.25 210.1 40.9"/><path fill="#fff" d="M122.48 544.64s-16.43-104.13 10.33-173.94c49.16-17.9 211.09-73.83 211.09-73.83l117.5 68.91 43.07 141.66-47.3 104.9-234.56 3.5-100.13-71.2z"/></g><path fill="url(#b)" d="M123.64 514.62c-3.24-13.63-3.69-45.4-3.69-79.48 0-40.14 6.94-56.5 13.18-71.99 1.66-.34 3.34-.5 5.04-.5 24.17 0 43.77 35 43.77 78.19s-19.6 78.2-43.77 78.2a27.1 27.1 0 01-14.53-4.42" transform="matrix(.16317 0 0 -.16317 .65 131.86)"/><g clip-path="url(#c)" transform="matrix(.16317 0 0 -.16317 .65 131.86)"><path d="M121.4 427.29c0 34.19-2.13 53.27 1.39 75.18 1.82.54 3.69.82 5.6.82 19.94 0 36.1-30.64 36.1-68.44 0-34.75-13.66-63.45-31.36-67.86-8.12 20.48-11.73 22.5-11.73 60.3"/><path fill="#fff" d="M126.84 418.7c-2.7 5.37-2.37 11.76.73 14.27 3.1 2.52 7.8.21 10.5-5.15s2.37-11.75-.73-14.27c-3.1-2.52-7.8-.21-10.5 5.15m8.17 45c-4.36 17.58-.86 34.64 7.8 38.1 8.67 3.47 19.22-7.98 23.58-25.56 4.35-17.58.86-34.64-7.8-38.1-8.67-3.47-19.23 7.98-23.58 25.56"/></g><path fill="url(#d)" d="M244.71 402.79c0-56.4 31.57-102.13 70.52-102.13 38.95 0 70.52 45.73 70.52 102.13s-31.57 102.13-70.52 102.13c-38.95 0-70.52-45.73-70.52-102.13" transform="matrix(.16317 0 0 -.16317 .65 131.86)"/><g clip-path="url(#e)" transform="matrix(.16317 0 0 -.16317 .65 131.86)"><path d="M241.28 394.96c0 49.37 26.05 89.4 58.18 89.4 32.13 0 58.18-40.03 58.18-89.4 0-49.36-26.05-89.39-58.18-89.39-32.13 0-58.18 40.03-58.18 89.4"/><path fill="#fff" d="M296.97 373.88c-4.34 7-3.81 15.35 1.18 18.64 5 3.29 12.58.27 16.93-6.73 4.34-7 3.81-15.35-1.18-18.64-5-3.29-12.58-.27-16.93 6.73m13.16 58.77c-7.02 22.96-1.39 45.24 12.58 49.76 13.96 4.53 30.97-10.42 37.99-33.38 7.02-22.96 1.39-45.24-12.58-49.77-13.96-4.52-30.97 10.42-37.99 33.39"/><path fill="#fe4f4d" d="M441.84 386.05c-38.94-62.96-106.93-90.11-151.86-60.66-44.92 29.46-49.77 104.38-10.82 167.34 7.13 11.54 13 18.36 21.78 27.36 32.03-14.08 111.59-27.6 166.23-30.33 4.02-29.88-2.85-67.37-25.33-103.71m138.04 185.92l-88.75 118.41-360.6-78.76-8.08-67.77s-6-32.1-5.25-75.05v1.79c0 58.08 13.87 105.16 30.98 105.16s30.99-47.08 30.99-105.16-30.99-103.16-37.29-105.17c-.37 0-.74.03-1.1.07 32.72-21.21 61.58-37.67 61.58-37.67l86.05-90.91 147.05 13.88 69-5.4 90.28 60.86 12.79 136.07-27.65 129.65z"/><path fill="none" stroke="#cf363a" stroke-miterlimit="10" stroke-width="10" d="M122.45 543.85S102.2 464.67 132.8 370.7"/><path d="M303.02 517.93a172.87 172.87 0 01-42.76-71.41 151.9 151.9 0 01-4.27-69.59c-6.68 30.97-3.06 63.8 9.27 92.9 8.13 19.19 19.3 37.23 33.6 52.42l4.16-4.32zm-125.49 5.4c4.55-28.03 4.52-56.9-.7-84.83-3.63-19.03-10.12-37.64-20.34-54.15 17.12 30.08 22.06 65.55 20.69 99.71-.58 12.84-1.92 25.67-4.55 38.25l4.9 1.02z"/><path d="M526.93 494.24c-41-11.07-84.27-7.83-125.78-1.56-39.52 6.43-78.47 16.64-115.9 30.91 2.86 9.61 10.48 17.52 19.68 21.34-8.55-2.73-14.31-16.76-17.2-19.51 9.56-1.78 22.15-5.66 32.94-8.02 55.88-13.12 112.63-24.75 170.24-25.29 12.04-.05 24.08.63 36.02 2.13z"/><path d="M469.23 492.07c12.12 1.66 24.2 4 35.82 7.89 4.59 1.6 9.11 3.48 13.2 6.15-6.18-4.7-13.45-7.67-20.7-10.3a223.25 223.25 0 00-27.67-7.68l-.65 3.94z"/><path d="M459.93 492.43a74.22 74.22 0 0122.16 7.5c3.83 2.11 7.46 4.7 10.32 8.03.47.55 2.17 2.76.95 1.01-2.37-3.82-5.7-6.95-9.32-9.58-6.62-4.77-14.19-8.11-21.96-10.5-.86-.41-1.56-.52-1.52.57l-.63 2.97z"/><path fill="none" stroke="#000" stroke-miterlimit="10" stroke-width="4" d="M166.74 520.1l12.02 3.93s4.06 7.43 2.4 19.22"/><path fill="#ffb6b5" stroke="#ff9493" stroke-miterlimit="10" stroke-width="10" d="M516.67 654c-17.03 16.63-413.02 89-404.85-401.63-28.7 58.6-71 130.09-46.44 217.28-15.69-11.31-24.57-25.72-26.42-37.9C29 476.96 9.3 637.04 110.73 725.57c105.2 91.82 336.97 89.77 473.43-58.3"/><path fill="none" stroke="#ff9493" stroke-miterlimit="10" stroke-width="5" d="M528.51 657.79S259.54 800.42 65.38 469.65M553.8 669.18s-270.39 150.4-468.84 29.3"/><path fill="#fe4f4d" d="M156.5 384.35s-14.47-14.7-38.96-16c-24.5-1.3-23.23-25.8-21.24-36.67 2.65-14.52 42.5-149.1 339.16-80.89"/><path fill="#cf0800" d="M162.5 259.7a62.56 62.56 0 0031.14 14.2c12 1.88 24.42-.26 35.42-5.27-12.19 3.53-25.55 3.65-37.49-.93-8.28-3.16-15.96-8.16-21.8-14.87l-7.26 6.87z"/><path fill="#cf0800" d="M156.5 384.35c-10.9-13.54-27.94-20.56-44.87-22.07-13.7-5.2-12.6-22.88-9.14-34.52 14-40.28 53.33-65.55 92.57-77.24 50.67-15.42 104.49-13.75 156.67-9.13 28.04 1.74 55.96 5.17 83.73 9.4-44.1-12.03-89.17-22.46-135.13-22.55-55.42-.99-114.34 5.74-161.19 37.87-23.45 16.78-44.74 41.16-48.56 70.68-2.4 15.17 5.1 33.96 22.04 36.01 14.73.86 30.22 1.98 42.75 10.77l1.12.77z"/><path fill="#cf0800" d="M135.75 336.11c8.7 4.22 18.38 5.45 27.66 7.78 1.14.2 3.5 1.44 2.57-.72-.84-4.84-4.68-8.7-9.07-10.6-6.5-2.9-14.75-2.2-20.21 2.55-.33.32-.66.63-.95 1z"/><path fill="#ffb6b5" stroke="#ff9493" stroke-miterlimit="10" stroke-width="10" d="M583.93 489.15s23.6-186.45-95.16-226.79c35.68-51.58 62.72-224.6 12.65-287.33 269.96-13.7 200.7 327.3 142.35 506.82"/><path fill="none" stroke="#ff9493" stroke-miterlimit="10" stroke-width="5" d="M607.22 485.46s21.24-248.9-88.98-302.89m108.23 302.89s85.7-371.84-99.53-436.09"/><path fill="#fe4f4d" d="M464.34 636.85c169.34 114.63 272.5-87.58 285.77-162.17-84.98-42.28-197.8 19.44-197.8 19.44l13.95 53.17-43.97 69.99-57.95 19.57z"/><path fill="#cf0800" d="M552.3 494.13c20.66-7.1 41.91-12.2 62.58-19.19 43.12-12.1 91.68-16.14 133 4.22-3.73-11.51-3.69 3.27-5.61 7.88-13.61 49.2-38.51 96.04-74.83 132.24-28.78 28.83-68.96 48.05-110.3 45.06-32.52-2.17-64.17-12.04-92.8-27.49 29.15 21 63.47 38.36 100.24 37.7 45.32.7 87.7-23.15 117.58-56.03 34.3-37.63 58.4-84.34 70.93-133.6-.44-4.65 6.13-13.09-.75-14.71-44.55-22-96.96-17.54-143.3-4-20.68 5.1-39.53 15.6-56.74 27.91z"/><path fill="#f59091" d="M394.58 729.04l39.8 6.73 7.97-83.58 34.72 39.8 25.31-20.62-72.05-87.8-92.8 69.33 22.52 27.16 43.61-31-9.08 79.98z"/><path fill="none" stroke="#f04f4b" stroke-miterlimit="10" stroke-width="5" d="M394.58 729.04l39.8 6.73 7.97-83.58 34.72 39.8 25.31-20.62-72.05-87.8-92.8 69.33 22.52 27.16 43.61-31-9.08 79.98z"/></g></svg>