<svg xmlns="http://www.w3.org/2000/svg" viewBox="0 0 128 128"><defs><clipPath id="a"><path d="M0 800h800V0H0v800z"/></clipPath><clipPath id="c"><path d="M0 800h800V0H0v800z"/></clipPath><clipPath id="e"><path d="M0 800h800V0H0v800z"/></clipPath><linearGradient id="b" x2="1" gradientTransform="scale(160.732) rotate(-90 2.16 .99)" gradientUnits="userSpaceOnUse"><stop offset="0" stop-color="#257697"/><stop offset="1" stop-color="#70bede"/></linearGradient><linearGradient id="d" x2="1" gradientTransform="rotate(-90 419.35 70.26) scale(221.646)" gradientUnits="userSpaceOnUse"><stop offset="0" stop-color="#257697"/><stop offset="1" stop-color="#70bede"/></linearGradient></defs><g clip-path="url(#a)" transform="rotate(180 65.4 64.3) scale(.165)"><path fill="#f2d886" d="M644.44 139.6s38.03 118.89 20.07 253.01c-17.96 134.13 5.1 311.05 36.1 317.7 31 6.65 104.94-175.05 23.86-461.35 21 24.73 33.01 44.22 33.01 44.22 22.68-44-17.35-121.99-17.35-121.99l-95.7-31.6z"/><path fill="none" stroke="#eacb4e" stroke-miterlimit="10" stroke-width="10" d="M644.44 139.6s38.03 118.89 20.07 253.01c-17.96 134.13 5.1 311.05 36.1 317.7 31 6.65 104.94-175.05 23.86-461.35 21 24.73 33.01 44.22 33.01 44.22"/><path fill="#f2d886" d="M772.33 259.33l30.34 117 5-82.66-33.54-55.8-1.8 21.46z"/><path fill="#faaf44" d="M632.7 683.45c68.3-67.45 135.85-349.77 1.85-529.8L548 213l84.7 470.45z"/><path fill="none" stroke="#f6991f" stroke-miterlimit="10" stroke-width="10" d="M632.7 683.45c68.3-67.45 135.85-349.77 1.85-529.8"/><path fill="#fce389" d="M412.75 215.04S381.35 61.53 436.01-19.8h373.67v304.5l-38.33-50.5s18.78 63.13 29.39 139.23c10.6 76.1 19.34 291.8-46.03 349.95-24.03 3.48-40.94-71.85-46.15-155.85-5.21-84 .88-173.1 7.17-204.21 6.28-31.12-5.17-182-11.3-191.34-14.37-8.99-74.63-6.31-74.63-6.31s-11.54 26.86-4.7 72.2c-67.1 95.46-212.35-22.82-212.35-22.82"/><path fill="none" stroke="#eacb4e" stroke-miterlimit="10" stroke-width="10" d="M412.75 215.04S379.01 70.2 436.01-19.8"/><path fill="#eacb4e" d="M693.01 123.2c7.48 44.04 13.6 88.38 17.61 132.88 4.7 53.65 1.32 107.6-5.6 160.9-6.47 85.94-4.35 173.37 14.05 257.8 6.15 18.65 8.88 45.68 29.81 53.44 18.98.01 26.96-22.84 34.4-36.8 30.24-75.33 33.57-158.4 30.16-238.58-3.92-73-16.67-145.38-35.6-215.94-11.86 2.42-6.33 8.77-.44 15.2a400.58 400.58 0 0124.3 35.12c12.22-2.85 6.37-10.24.8-17.32-12.56-18.83-26.96-36.33-40.6-54.37 36.14 130 56.3 267.75 32.52 401.85-7.07 32.8-14.2 67.67-34.94 94.93-7.2 12.73-17.43 1.93-20.18-7.7-20.36-52.46-23.34-109.7-26.74-165.31-3.17-60.28 1.54-120.54 8.45-180.38 3.91-57.59 1.3-115.87-9.43-172.6-4.85-21.4-10.7-42.62-18.57-63.13z"/><path fill="none" stroke="#eacb4e" stroke-miterlimit="10" stroke-width="10" d="M717.27 338.48s8.75 62.38 38.08 61.72c29.33-.67 42.79-53.2 34.3-91.57"/><path fill="#eacb4e" d="M812.86 157c-13.9-9.53-28.5-18.1-43.95-24.87a139.39 139.39 0 00-14.2-5.27c15.16 7.43 28.7 17.7 41.5 28.59a256.9 256.9 0 0110.3 9.27l6.35-7.72zm-.23-72.18c-17.19-10.7-35.85-18.9-54.99-25.45a299.9 299.9 0 00-30.3-8.5c26.77 9.25 52.4 22.1 75.28 38.84 1.77.68 3.91 4.8 5.12 1.8l4.9-6.69zM630.1 237.7l-.1-1.48-.21-4.26a425.8 425.8 0 01.68-49.22c.3-4.16.7-8.38 1.17-12.6l.78-6.29c.31-2.08.58-4.17.93-6.22.67-4.12 1.4-8.16 2.28-12.03l.64-2.88.7-2.81.71-2.75.78-2.65c.26-.87.5-1.74.76-2.58l.83-2.48c.28-.81.53-1.62.81-2.4l.87-2.26.84-2.19.9-2.04c.59-1.32 1.12-2.6 1.73-3.73.6-1.15 1.13-2.24 1.66-3.23l1.58-2.65.67-1.13.67-.96 1.05-1.51.88-1.26-.97 1.2-1.16 1.43-.74.9-.76 1.1-1.78 2.54c-.6.96-1.22 2.01-1.9 3.13-.72 1.1-1.34 2.35-2.03 3.64l-1.06 2-1.01 2.14-1.05 2.24c-.35.76-.66 1.56-1 2.36l-1.02 2.45c-.34.83-.64 1.69-.97 2.55l-.98 2.64-.92 2.73-.93 2.8-.86 2.87a210.8 210.8 0 00-3.21 12.02c-.51 2.06-.93 4.15-1.4 6.25l-1.27 6.32a348.1 348.1 0 00-3.74 25.02 433.07 433.07 0 00-2.73 37.61l-.1 4.41-.01 1.59 10-.33z"/><path fill="none" stroke="#eacb4e" stroke-miterlimit="10" stroke-width="10" d="M629.8 165.67s35.5-8 74.64 6.3"/><path fill="#fff" d="M161.03 501.73s-15.64-96.29 9.83-160.84c46.8-16.56 200.97-68.28 200.97-68.28l111.87 63.72 41 131-45.03 97-223.3 3.23-95.34-65.83z"/></g><path fill="url(#b)" d="M159.36 501c-3.42-14-3.9-46.65-3.9-81.68 0-41.25 7.34-58.07 13.95-73.98a27.3 27.3 0 015.34-.53c25.57 0 46.3 35.98 46.3 80.37s-20.73 80.36-46.3 80.36a29.3 29.3 0 01-15.39-4.54" transform="rotate(180 65.4 64.3) scale(.165)"/><g clip-path="url(#c)" transform="rotate(180 65.4 64.3) scale(.165)"><path fill="#080404" d="M157 411.25c0 35.14-2.25 54.75 1.47 77.27 1.93.56 3.9.84 5.92.84 21.1 0 38.2-31.5 38.2-70.34 0-35.71-14.45-65.2-33.18-69.74-8.59 21.05-12.41 23.12-12.41 61.97"/><path fill="#fff" d="M162.75 402.43c-2.85 5.51-2.5 12.08.78 14.67 3.28 2.58 8.26.21 11.11-5.3 2.86-5.51 2.5-12.08-.77-14.67-3.29-2.58-8.27-.21-11.12 5.3m8.65 46.24c-4.61 18.07-.92 35.6 8.25 39.16 9.17 3.56 20.34-8.2 24.95-26.27 4.61-18.07.91-35.6-8.26-39.16-9.17-3.56-20.34 8.2-24.94 26.27"/></g><path fill="url(#d)" d="M270.5 378.82c0-61.2 35.27-110.82 78.79-110.82s78.78 49.62 78.78 110.82c0 61.2-35.27 110.83-78.78 110.83s-78.79-49.62-78.79-110.83" transform="rotate(180 65.4 64.3) scale(.165)"/><g clip-path="url(#e)" transform="rotate(180 65.4 64.3) scale(.165)"><path fill="#080404" d="M266.67 370.33c0 53.58 29.1 97 65 97s65-43.42 65-97c0-53.57-29.1-97-65-97s-65 43.43-65 97"/><path fill="#fff" d="M328.89 347.45c-4.86 7.6-4.27 16.66 1.32 20.23 5.58 3.57 14.05.3 18.9-7.3 4.86-7.6 4.27-16.66-1.32-20.23-5.58-3.57-14.05-.3-18.9 7.3m14.7 63.77c-7.84 24.92-1.55 49.1 14.05 54 15.6 4.91 34.6-11.3 42.44-36.22 7.84-24.92 1.55-49.1-14.05-54-15.6-4.91-34.6 11.3-42.44 36.22"/><path fill="#fce389" d="M465.08 355.08c-37.08-58.22-101.8-83.33-144.58-56.1-42.77 27.25-47.38 96.53-10.3 154.74 37.07 58.22 101.8 83.33 144.57 56.1 42.78-27.25 47.39-96.53 10.31-154.74M596.5 527L512 636.5l-349.2-94.17L161 501s-5.71-29.68-5-69.4v1.65c0 53.71 13.2 97.25 29.5 97.25s29.5-43.54 29.5-97.25-29.5-95.4-35.5-97.25c-.36 0-.7.03-1.05.07 31.15-19.62 58.63-34.84 58.63-34.84L319 217.16 459 230l65.7-5 68.68 81.5L613 407l-16.5 120z"/><path fill="none" stroke="#eacb4e" stroke-miterlimit="10" stroke-width="10" d="M161 501s-19.28-73.22 9.86-160.11"/><path fill="#231f20" d="M286.73 353.5c-7.82 31.09-.26 64.24 14.18 92.24 17.67 33.64 47.02 62.3 83.4 74.69 27.66 9.08 61.33 5.56 82.5-15.85a75.57 75.57 0 0015.64-23.2c-3.59 2.63 10.38-.4 13.3 1.94 6.31 1.66 12.97 4.01 17.25 9.19-7.48-10.33-21.22-14.65-33.6-14.1-9.92 19.23-28.73 34-50.47 36.74-27.36 4.27-54.68-6.4-76.22-22.76-37.91-28.76-64.04-73.86-66.61-121.71a97.9 97.9 0 01.63-17.18z"/><path fill="#231f20" d="M473.28 494.5c7-.1 14.02 1.03 20.66 3.25a47.2 47.2 0 0113.03 6.71c1.25.91-1.12-1.04-1.47-1.39-5.82-4.89-12.84-8.18-20.1-10.28a63.69 63.69 0 00-12.05-2.28l-.07 4zm-8.2 9.22a71.05 71.05 0 0123.34 5.1c3.19 1.34 6.27 3 9.06 5.06 1.7 1.22 3.2 2.65 4.69 4.12a36.56 36.56 0 00-6.56-6.45c-4.16-3.25-8.93-5.65-13.84-7.55a76.97 76.97 0 00-16.38-4.27l-.32 4zm-258.17 4.6c8.16-29.84 11.41-61.23 8.1-92.05-2.48-21.98-9.05-43.81-21.36-62.36 17.05 27.56 21.5 60.99 19.5 92.83a256.66 256.66 0 01-11 60.06l4.76 1.52z"/><path fill="#fce389" d="M469.25 221.77c-64.35-35.58-199.85-29.3-243.8-21.45 38.72 19.36 23.64 57.79 11.6 95.98-10.55-29.89-46.65-47.33-76.47-33.72-29.54 13.47-37.14 72.08-13.08 73.24 32.44 1.57 43.95 15.17 43.95 15.17l51.98-24.18 68.18-61.1 157.64-43.94z"/><path fill="#f06891" d="M208.05 265.45s23.6-25.18 21.81-62.68c11.82 8.01 33.79 29.98 5.54 97.47-6.68-16.99-8.13-23.53-27.35-34.79"/><path fill="#e78461" d="M237.21 208.34s-18.48 34.96 11.56 42.24c-1.79-27.26 3.33-29-11.56-42.25"/><path fill="#eacb4e" d="M191.45 350.99c-9.37-14.02-27.8-20.35-43.59-20.16-11.2-2.27-10.1-17.37-8.98-26.2 2.62-18.46 14.6-38.07 34.16-40.86 26.32-5.5 52.42 13.48 60.94 37.9 1.9 5.4 3.8 9.38 5.56 1.59 9.44-23.4 21.62-48.2 16.93-74.1-3.03-15.24-15.2-26.82-28.78-33.32-3.35 9.34.78 10.83 9.9 7.7 55.24-6.2 111.52-6.3 166.45 2.76 21.82 4.8 44.27 7.25 65.21 15.46-21.3-15.63-47.12-23.82-73.16-26.92-54.83-7.58-110.76-7.46-165.64-.4-6.83 1.06-13.63 2.35-20.44 3.52 14.8 7.69 33.14 14.9 36.7 33.36 3.75 21.96-6.42 43.1-14.26 63.02 6.36.55 13 .92 5.81-6.95-14.38-27.56-50.5-43.25-79.5-29.48-22.43 11.2-32.78 38.96-29.94 62.9.75 12.54 11.93 21.59 24.16 20.49 13.03 2.29 26.9 2.42 38.47 9.69z"/><path fill="#eacb4e" d="M172.1 301.29c6.5 2.96 13.62 4.1 20.56 5.58 2.24.47 4.43 1.16 6.64 1.74.42-4.09-1.99-8.02-5.26-10.31-5.97-4.27-14.9-3.92-20.33 1.1-.61.56-1.17 1.19-1.62 1.89z"/><path fill="#fdf1c5" d="M585.24 228.47S561 179.67 604.34 99C601 187.67 631.23 241.38 643 265c34 68.33 24.34 177 2.67 262L613 504.83l-27.76-276.36z"/><path fill="none" stroke="#f8cd46" stroke-miterlimit="10" stroke-width="10" d="M585.24 228.47S561 179.67 604.34 99C601 187.67 631.23 241.38 643 265c34 68.33 24.34 177 2.67 262"/><path fill="#fdf1c5" stroke="#f8cd46" stroke-miterlimit="10" stroke-width="10" d="M593.38 482S609.4 306 513 168c45.33 19.67 126.67 61.67 113.5 330.67"/><path fill="#faaf44" d="M581.92 708.51S67.66 940.69 29 396.08c41.88 65.95 97.26 94.22 134.5 101.9l206.36 80.05 175.63 55.95 36.43 74.53z"/><path fill="none" stroke="#f6991f" stroke-miterlimit="10" stroke-width="10" d="M581.92 708.51S67.66 940.69 29 396.08c41.88 65.95 97.26 94.22 134.5 101.9"/><path fill="#fce389" d="M260.94 549.37s-98.4 176.79-78 194.4c20.39 17.63 119.1-139.97 131.98-160.29"/><path fill="none" stroke="#eacb4e" stroke-miterlimit="10" stroke-width="6" d="M215.34 723.72s9.3-22.29-13.42-56.75m62.56-7.03s8.66-43.2-22.34-75.54"/><path fill="none" stroke="#eacb4e" stroke-miterlimit="10" stroke-width="10" d="M260.94 549.37s-98.4 176.79-78 194.4c20.39 17.63 119.1-139.97 131.98-160.29"/><path fill="#fdf1c5" d="M528.33 647.26S449 647.26 322 604.5c-69.15-23.28-176.17-109.57-197.59-134.29 38.73 18.24 171.83 47.87 235.74 69.02C456.38 571.1 483.63 599.5 526.1 609"/><path fill="none" stroke="#f8cd46" stroke-miterlimit="10" stroke-width="10" d="M528.33 647.26s-74 0-206.33-42.76c-69.43-22.44-176.17-109.57-197.59-134.29 38.73 18.24 171.88 47.7 235.74 69.02C445 567.56 483.63 599.5 526.1 609"/><path fill="#fce389" d="M576.33 415c130 110.67 61.34 288 18.67 338-67.33-41.33-92-164-92-164l41.33-18 25.34-70.67 6.66-85.33z"/><path fill="#eacb4e" d="M503 589c.93 21.83 5.28 43.58 14.21 63.59 15.22 37.84 35.5 76.25 69.25 100.73 3.42 1.24 7.54 7.17 10.48 5.16 29.63-36.02 46.12-81.27 55-126.6 11.1-58.23 3.46-121.38-29-171.85-11.46-18.56-28.26-33.46-46.6-45.03 18.14 21.62 35.4 44.33 48.69 69.3 31.61 63.3 25.78 139.16.65 203.58-8.75 21.97-19.38 43.54-34.48 61.87 7.39-.08 6.1-2.05.45-4.98-33.72-25.04-53.07-64.54-67.77-102.77-5.73-18.12-13.9-35.34-20.88-53z"/><path fill="#eacb4e" d="M605 659c7.56-17.59 9.67-37.18 8.36-56.16-2.08-27.94-13.39-56.13-34.8-74.8-2.76-2.32 2.77 5.33 3.27 7.04 13.9 24.97 21.38 53.2 23.17 81.65.98 14.07.88 28.2 0 42.27z"/><path fill="#fcebaa" d="M555.86 599.16l-50.9-30.35-3.86-59.13-44.6 39.03-57.43-14.6 23.34 54.47-31.63 50.1 59.01-5.36 37.88 45.57 13.14-57.79 55.05-21.94z"/><path fill="none" stroke="#fcc72f" stroke-miterlimit="10" stroke-width="6" d="M555.86 599.16l-50.9-30.35-3.86-59.13-44.6 39.03-57.43-14.6 23.34 54.47-31.63 50.1 59.01-5.36 37.88 45.57 13.14-57.79 55.05-21.94z"/><path fill="#fef8df" d="M493.65 606.07l-17.52-10.45-1.33-20.36-15.35 13.44-19.78-5.03 8.03 18.76-10.89 17.25 20.32-1.85 13.04 15.7 4.52-19.9 18.96-7.56z"/><path fill="none" stroke="#fcc72f" stroke-miterlimit="10" stroke-width="6" d="M493.65 606.07l-17.52-10.45-1.33-20.36-15.35 13.44-19.78-5.03 8.03 18.76-10.89 17.25 20.32-1.85 13.04 15.7 4.52-19.9 18.96-7.56z"/></g></svg>