<svg xmlns="http://www.w3.org/2000/svg" viewBox="0 0 128 128"><defs><clipPath id="a"><path d="M0 800h800V0H0v800z"/></clipPath><clipPath id="c"><path d="M0 800h800V0H0v800z"/></clipPath><clipPath id="e"><path d="M0 800h800V0H0v800z"/></clipPath><linearGradient id="b" x2="1" gradientTransform="scale(160.73193) rotate(-90 2.16 .99)" gradientUnits="userSpaceOnUse"><stop offset="0" stop-color="#85d755"/><stop offset=".24" stop-color="#85d755"/><stop offset="1" stop-color="#c6edad"/></linearGradient><linearGradient id="d" x2="1" gradientTransform="rotate(-90 419.36 70.26) scale(221.64648)" gradientUnits="userSpaceOnUse"><stop offset="0" stop-color="#85d755"/><stop offset=".24" stop-color="#85d755"/><stop offset="1" stop-color="#c6edad"/></linearGradient></defs><g clip-path="url(#a)" transform="rotate(180 66 65.99) scale(.166)"><path fill="#69bf3c" d="M413.56 233.08S379.6 67.06 438.72-20.9H842.8v226.37c-79.67-63.08-210.11-40.91-210.11-40.91s-13.03 44.16-5.64 93.18c-26.5 44.34-213.5-24.67-213.5-24.67"/><path fill="none" stroke="#498628" stroke-miterlimit="10" stroke-width="10" d="M413.56 233.08S377.08 76.43 438.72-20.9"/><path fill="#498628" d="M632.05 257.45l-.14-1.64-.35-4.7a462.38 462.38 0 01-1.07-28.22c-.04-4.02-.03-8.26.05-12.64a407.34 407.34 0 011.42-27.45c.2-2.33.46-4.65.69-6.97.28-2.31.55-4.62.86-6.9.65-4.56 1.36-9.04 2.22-13.33.43-2.15.84-4.27 1.35-6.32l.72-3.05c.25-1 .53-1.97.8-2.95l.78-2.87.86-2.74.85-2.66.92-2.53.9-2.42c.29-.79.64-1.53.94-2.27.65-1.46 1.19-2.9 1.86-4.15l1.8-3.58 1.72-2.93.74-1.25c.25-.4.5-.73.73-1.06l1.17-1.67.97-1.39-1.06 1.32-1.28 1.6c-.25.3-.53.63-.8 1l-.83 1.22-1.93 2.83-2.05 3.49c-.77 1.22-1.4 2.62-2.15 4.06-.36.72-.77 1.46-1.11 2.23l-1.07 2.38-1.1 2.5-1.03 2.63-1.07 2.73-.98 2.85c-.33.96-.69 1.94-1 2.93l-.93 3.04c-.66 2.05-1.22 4.16-1.8 6.31-1.17 4.3-2.19 8.79-3.15 13.36-.47 2.3-.89 4.61-1.34 6.94-.38 2.33-.8 4.67-1.17 7.01a409.3 409.3 0 00-3.28 27.7 472.2 472.2 0 00-1.43 24.3c-.24 7.13-.3 13.08-.29 17.26l.04 4.86.04 1.74 9.98-.6z"/><path fill="none" stroke="#498628" stroke-miterlimit="10" stroke-width="10" d="M632.7 164.57s127.56-23.25 210.1 40.91"/><path fill="#fff" d="M161.03 501.73s-15.64-96.29 9.83-160.84c46.8-16.56 200.97-68.28 200.97-68.28l111.87 63.72 41 131-45.03 97-223.3 3.23-95.34-65.83z"/></g><path fill="url(#b)" d="M159.36 501c-3.42-14-3.9-46.65-3.9-81.68 0-41.25 7.34-58.07 13.95-73.98a27.3 27.3 0 015.34-.53c25.57 0 46.3 35.98 46.3 80.37s-20.73 80.36-46.3 80.36a29.3 29.3 0 01-15.39-4.54" transform="rotate(180 66 65.99) scale(.166)"/><g clip-path="url(#c)" transform="rotate(180 66 65.99) scale(.166)"><path fill="#080404" d="M157 411.25c0 35.14-2.25 54.75 1.47 77.27 1.93.56 3.9.84 5.92.84 21.1 0 38.2-31.5 38.2-70.34 0-35.71-14.45-65.2-33.18-69.74-8.59 21.05-12.41 23.12-12.41 61.97"/><path fill="#fff" d="M162.75 402.43c-2.85 5.51-2.5 12.08.78 14.67 3.28 2.58 8.26.21 11.11-5.3 2.86-5.51 2.5-12.08-.77-14.67-3.29-2.58-8.27-.21-11.12 5.3m8.65 46.24c-4.61 18.07-.92 35.6 8.25 39.16 9.17 3.56 20.34-8.2 24.95-26.27 4.61-18.07.91-35.6-8.26-39.16-9.17-3.56-20.34 8.2-24.94 26.27"/></g><path fill="url(#d)" d="M270.5 378.82c0-61.2 35.27-110.82 78.79-110.82s78.78 49.62 78.78 110.82c0 61.2-35.27 110.83-78.78 110.83s-78.79-49.62-78.79-110.83" transform="rotate(180 66 65.99) scale(.166)"/><g clip-path="url(#e)" transform="rotate(180 66 65.99) scale(.166)"><path fill="#080404" d="M266.67 370.33c0 53.58 29.1 97 65 97s65-43.42 65-97c0-53.57-29.1-97-65-97s-65 43.43-65 97"/><path fill="#fff" d="M328.89 347.45c-4.86 7.6-4.27 16.66 1.32 20.23 5.58 3.57 14.05.3 18.9-7.3 4.86-7.6 4.27-16.66-1.32-20.23-5.58-3.57-14.05-.3-18.9 7.3m14.7 63.77c-7.84 24.92-1.55 49.1 14.05 54 15.6 4.91 34.6-11.3 42.44-36.22 7.84-24.92 1.55-49.1-14.05-54-15.6-4.91-34.6 11.3-42.44 36.22"/><path fill="#69bf3c" d="M465.08 355.08c-37.08-58.22-101.8-83.33-144.58-56.1-42.77 27.25-47.38 96.53-10.3 154.74 37.07 58.22 101.8 83.33 144.57 56.1 42.78-27.25 47.39-96.53 10.31-154.74M596.5 527L512 636.5l-349.2-94.17L161 501s-5.71-29.68-5-69.4v1.65c0 53.71 13.2 97.25 29.5 97.25s29.5-43.54 29.5-97.25-29.5-95.4-35.5-97.25c-.36 0-.7.03-1.05.07 31.15-19.62 58.63-34.84 58.63-34.84L319 217.16 459 230l65.7-5 68.68 81.5L613 407l-16.5 120z"/><path fill="none" stroke="#498628" stroke-miterlimit="10" stroke-width="10" d="M161 501s-19.28-73.22 9.86-160.11"/><path fill="#231f20" d="M286.73 353.5c-7.82 31.09-.26 64.24 14.18 92.24 17.67 33.64 47.02 62.3 83.4 74.69 27.66 9.08 61.33 5.56 82.5-15.85a75.57 75.57 0 0015.64-23.2c-3.59 2.63 10.38-.4 13.3 1.94 6.31 1.66 12.97 4.01 17.25 9.19-7.48-10.33-21.22-14.65-33.6-14.1-9.92 19.23-28.73 34-50.47 36.74-27.36 4.27-54.68-6.4-76.22-22.76-37.91-28.76-64.04-73.86-66.61-121.71a97.9 97.9 0 01.63-17.18z"/><path fill="#231f20" d="M473.28 494.5c7-.1 14.02 1.03 20.66 3.25a47.2 47.2 0 0113.03 6.71c1.25.91-1.12-1.04-1.47-1.39-5.82-4.89-12.84-8.18-20.1-10.28a63.69 63.69 0 00-12.05-2.28l-.07 4zm-8.2 9.22c9.26.5 18.55 2.55 26.87 6.75a38.1 38.1 0 0110.22 7.53c-4.92-6.3-11.91-10.6-19.25-13.54a76.47 76.47 0 00-17.53-4.73l-.32 4zm-258.17 4.6c8.16-29.84 11.41-61.23 8.1-92.05-2.48-21.98-9.05-43.81-21.36-62.36 17.05 27.56 21.5 60.99 19.5 92.83a256.66 256.66 0 01-11 60.06l4.76 1.52z"/><path fill="#69bf3c" d="M459.02 208.49c-251.55-36.66-306.28 46.1-319.67 75.54-14.21 31.23.61 49.74 23.27 52.76 35.4 4.72 44.85 21.1 44.85 21.1l59.98-57.2 191.57-92.2z"/><path fill="#498628" d="M207.47 357.9c-9.53-16.17-28.85-24.37-46.85-26.52-13.77-1.69-24.45-15.18-21.57-29.04 6.03-32.62 33.27-56.94 61.8-71.15 51.26-25.01 109.72-27.74 165.76-26.67 30.85-.51 61.68 1.4 92.4 3.97-45.4-8.7-91.55-16.42-137.95-13.74-53.3 2.6-109.67 11.76-152.9 45.36-20.5 16.95-39.27 41-39.31 68.75.11 18.82 17.72 32.2 35.4 33.3 15.19 2.27 31.9 4.17 43.22 15.74z"/><path fill="#498628" d="M162.62 295.27c7.3 2.25 15.02 2.03 22.5 3.2a35.8 35.8 0 016.96 2.13c.76-.75.12-2.16.07-3.15-1.1-4.54-5.14-7.88-9.52-9.09-6.9-2-15.02.3-19.45 6.06-.2.27-.4.55-.57.85zm6.13-43.43c11.03-2.76 23.36-1.45 33.04 4.72 9.01 5.69 14.93 15.12 18.5 24.97-2.2-10.68-7.03-21.16-15.39-28.4-10.05-8.86-24.04-12.34-37.21-11.2-1.63-.3-.55 1.34-.54 2.21l1.6 7.7z"/><path fill="#9ee58e" d="M601 136c3-93 78.25-120.1 136.75-105.55-26.5 5-65.75 29.81-67.75 81.31 8-29 52-48.76 79-49.76-44 27-74 155.16-48 353 15.34 116.72-58.16 214-58.16 214L603 444l-2-308z"/><path fill="none" stroke="#62d44f" stroke-miterlimit="10" stroke-width="10" d="M642.85 629s73.49-97.28 58.15-214c-26-197.84 4-326 48-353-27 1-71 20.76-79 49.76 2-51.5 41.25-76.31 67.75-81.3C679.25 15.9 604 43 601 136"/><path fill="#f3f3f3" stroke="#dedede" stroke-miterlimit="10" stroke-width="10" d="M593.38 467.33S576 256.33 521 217.16c13-3.16 31.39-6.16 49.2 9.84-2.2-16-2.8-101.81 62.5-120.9C624 135 605 157.96 613 205.47c8 47.52 62.96 192.87 0 304.38"/><path fill="#9ee58e" stroke="#62d44f" stroke-miterlimit="10" stroke-width="10" d="M208.72 497.16s-123.15-31.9-171.1 29.79c30.19 9.03 57.31 4.47 96.15 66.05 38.83 61.58 81.16 138.82 166.64 141.36-11.57 15.32-15.45 36.64 39 47.64-13.81-21-23.77-30.88 44.38-37.91 68.15-7.03 148.7-25.2 186.4-61.47"/><path fill="#f3f3f3" stroke="#dedede" stroke-miterlimit="10" stroke-width="10" d="M519.91 596.69s-69.29 19.73-160.55-61.95-173.87-54.45-170.06 9.33c25.25-13.94 63.91-42.44 132.67 38.24 68.76 80.69 162.72 102.14 229.55 56.83"/><path fill="#69bf3c" d="M248.78 583.43s-83.76 150.46-66.4 165.46S283.75 629.76 294.7 612.46"/><path fill="none" stroke="#498628" stroke-miterlimit="10" stroke-width="6" d="M209.96 731.82s7.91-18.97-11.42-48.3m53.25-5.99s7.37-36.76-19.02-64.28"/><path fill="none" stroke="#498628" stroke-miterlimit="10" stroke-width="10" d="M248.78 583.43s-83.76 150.46-66.4 165.46S283.75 629.76 294.7 612.46"/><path fill="#62d44f" d="M226.02 574.95l4.08 2.31 10.63 5.9 7 3.91 7.73 4.4c2.67 1.53 5.39 3.17 8.15 4.8 2.74 1.68 5.53 3.35 8.25 5.13 1.37.88 2.76 1.73 4.09 2.65.67.45 1.34.9 2.02 1.33l1.98 1.36c2.63 1.8 5.2 3.61 7.64 5.42 2.45 1.81 4.8 3.6 6.98 5.34 1.13.84 2.14 1.75 3.17 2.58l1.52 1.23 1.42 1.23c1.9 1.58 3.55 3.13 5.08 4.47l3.87 3.6c1.04 1.04 1.91 1.83 2.49 2.39l.91.83-.43-1.15c-.3-.74-.72-1.86-1.33-3.24-.65-1.35-1.46-3-2.49-4.83-1.07-1.8-2.29-3.86-3.8-5.95a54.55 54.55 0 00-2.43-3.25 90.85 90.85 0 00-9.27-10.06 75.27 75.27 0 00-3.7-3.28l-1.92-1.62c-.65-.54-1.33-1.04-2-1.56a131.24 131.24 0 00-8.42-5.92c-1.45-.93-2.94-1.78-4.4-2.67-1.48-.87-3-1.66-4.48-2.47-1.5-.78-2.98-1.56-4.49-2.24a119.08 119.08 0 00-21-7.77 94.73 94.73 0 00-12.15-2.46c-2.98-.37-4.7-.4-4.7-.4"/><path fill="#69bf3c" d="M576.33 415c130 110.67 61.34 288 18.67 338-67.33-41.33-92-164-92-164l41.33-18 25.34-70.67 6.66-85.33z"/><path fill="#498628" d="M503 589c.93 21.83 5.28 43.58 14.21 63.59 15.22 37.84 35.5 76.25 69.25 100.73 3.42 1.24 7.54 7.17 10.48 5.16 29.63-36.02 46.12-81.27 55-126.6 11.1-58.23 3.46-121.38-29-171.85-11.46-18.56-28.26-33.46-46.6-45.03 18.14 21.62 35.4 44.33 48.69 69.3 31.61 63.3 25.78 139.16.65 203.58-8.75 21.97-19.38 43.54-34.48 61.87 7.39-.08 6.1-2.05.45-4.98-33.72-25.04-53.07-64.54-67.77-102.77-5.73-18.12-13.9-35.34-20.88-53z"/><path fill="#498628" d="M605 659c7.56-17.59 9.67-37.18 8.36-56.16-2.08-27.94-13.39-56.13-34.8-74.8-2.76-2.32 2.77 5.33 3.27 7.04 13.9 24.97 21.38 53.2 23.17 81.65.98 14.07.88 28.2 0 42.27z"/><path fill="#b5e997" d="M518.87 543.56L482.07 527l-28.84 78.85-23.53-47.28-29.7 13.55 47.53 103.16 107.31-43.63-14.93-31.98-50.03 18.98 29-75.1z"/><path fill="none" stroke="#85d856" stroke-miterlimit="10" stroke-width="5" d="M518.87 543.56L482.07 527l-28.84 78.85-23.53-47.28-29.7 13.55 47.53 103.16 107.31-43.63-14.93-31.98-50.03 18.98 29-75.1z"/></g></svg>