<svg xmlns="http://www.w3.org/2000/svg" viewBox="0 0 210 160"><path fill="#dbbfed" d="M65.23 59.3c4.12 15.25 5.74 25.27 2.01 34.2-3.4 8.14-12.55 13.71-23.56 7.27.38 14.92 21.88 34.52 46.94 23.62-3.64 6.1-16.3 5.33-21.29 7.64 19.6 7.85 54.3 3.56 73.74-5.18 11.82-5.31 27-26.84 27.34-28.83.08-.48.14-.43-.2-.19-.25.19-1.02.42-2.45.83-18.06 5.12-23.3-15.85-19.31-19.54.31-.3 6.17-3.95 1.22-.93-1.27.77-.19 12.25 22.5 6.65 1.65-.4 3.09-8.04 3.25-9.68 0-.11-.36.22-.53.24-8.22 1.18-9.04-4.41-7.9-9.21-16.73.96-25-18.58-43.74-15.57 4.98-3.1 10.98-2.35 16.32-2.82-15.6-12.64-35.46-14.34-47.8-.13 1.07-3.2 3.15-6.23 4.93-9.14-12.55 2.8-21.88 8.37-31.47 20.77z"/><path fill="#4a1a4e" d="M95.98 100.33a42.6 42.6 0 0144.64-13.42c-19.4-20.3-42.73-10.14-44.64 13.42z"/><path fill="#cdb5ed" d="M32.84 16.8c8.76 17.27 10.66 36.56 7.53 59.5-4.02 29.48 19.4 31.84 25.85 15.35 6.45-16.5-7.6-53.09-33.38-74.84z"/><path fill="#c3a5ed" d="M65.01 57.04c-.85-8.8-22.97-38.37-28.42-39.82 13.73 3.2 31.13 8.4 43.54 26.3-7.02 5-10.68 8.72-15.12 13.52z"/><path fill="#4a1a4e" d="M166.9 66.2c-.71 2.48-1.52 6.37-.81 9.57 2.9.76 6.82.64 9.31-.44.47-4.29.08-7.7-.7-10.92-2.54.9-4.37 1.52-7.8 1.78z"/></svg>