<svg xmlns="http://www.w3.org/2000/svg" viewBox="0 0 210 210"><path fill="#b6a400" d="M107.09 165.9c-27.22-14.07-48.1-30.2-55.59-53.58 3.6 2.74 4.92 4.68 8.43 6.08-1.13-1.18-8.28-7.13-8.77-14.32-.7-3.8-.76-9.87-1.1-12.85 14.04-1.49 20.3-4.7 25.08-18.32 18.82-13.14 38.95-16.31 61.6-.24 4.21 9.5 9.64 18.23 25.86 20.02-.46 4.17.32 7.83-1.14 12.63-1.75 5.18-6.47 10.84-10.12 12.4 2.14.85 9.47-5.3 8.32-4.58-8.9 32.43-43.29 46.35-52.57 52.76z"/><path fill="#ae9600" d="M49.76 90.31c14.36-.6 21.22-7.83 24.34-17.3-7.74-17.2-37.22-24.22-53.54-21.95 11.6 6.38 30.1 24.76 29.2 39.25zM162.5 91.27c-16.36.8-25.64-18.42-24.66-18.9 8.06-14.1 37.33-20.38 53.5-19.98-14.92 7.34-29.18 25.7-28.84 38.88z"/><path fill="#ae8d00" d="M94.5 160.44c-2.52 3.62-7.4 6.8-12.6 10.67-2.55 1.24-5.03 2.2-10.78 2.56 1.87.85 3.82 1.19 6.81 1.12-5.52 3.98-19.46 14.27-23.16 18.27-1.42-7.39-2.04-19.43-1.95-27.07 1.03 1.14 2.1 3.03 4.5 3.81-1.74-1.39-4.73-6.82-4.07-8.25.3-4.05.78-7.92 1.4-11.5-.27-.99 1.72 3.48 3.1 3.7-.75-1.13-2.12-4.72-1.98-7.4.97-6.36 2.57-12.33 1.96-18.48 9.42 13.4 20.57 23.91 36.76 32.57z"/><path fill="#614d00" d="M67.83 132.77c2.25-12.82 7.85-21.11 24.8-13.95-11.81-1.34-19.54 4.22-24.8 13.95zM146.46 133.23c-2.25-12.82-7.85-21.11-24.8-13.95 11.81-1.34 19.54 4.23 24.8 13.95z"/><path fill="#a38300" d="M75.09 71.93c25.7-20.9 53.77-7.5 61.75-.58 1.05-3.93-3.93-42.12-15.37-45.9 3.62 6.32 5.38 22.46 3.15 25.68 3-20.88-28.84-5.12-5.51-41.43-11.62 5.43-29.25 12.6-31.4 32.91-.92-2.98-3.29-11.84 0-21.26-13.4 14-12.96 37-12.62 50.58z"/><path fill="#614d00" d="M100.8 162.6l6.28-8.4 6.28 7.98-6.27 3.72z"/><path fill="#ae8d00" d="M118.85 160.14c2.49 3.65 7.36 6.87 12.51 10.76 2.55 1.25 5.03 2.24 10.77 2.63-1.87.84-3.83 1.16-6.81 1.08 5.5 4.01 19.36 14.4 23.04 18.42 1.46-7.38 2.16-19.41 2.13-27.05-1.04 1.12-2.12 3.01-4.52 3.78 1.74-1.38 4.77-6.8 4.12-8.22a120.6 120.6 0 00-1.33-11.52c.28-.98-1.74 3.47-3.11 3.7.74-1.15 2.14-4.72 2.02-7.4-.93-6.37-2.5-12.35-1.84-18.5-9.34 14.18-24.14 26.38-36.98 32.32z"/></svg>