<svg xmlns="http://www.w3.org/2000/svg" viewBox="0 0 210 180"><path fill="#5b9b26" d="M67.39 90.1c11.7 10.61 18.48 18.17 20.16 27.7 1.53 8.69-7.33 20.96-20.26 14.87 8.37 12.36 41.4 21.22 56.62-1.48.22 7.1-10.98 10.32-13.93 14.95 19.95-5.81 47.96-22.45 56.63-41.67 8.54-18.89 10.46-44.24 2.1-60.5-.05-.1-.19.38-.31.49-6.28 5.43-10 1.16-11.62-3.5-13.58 9.84-35.05-5.16-45.23 10.51-1.82-5.3.6-11.68 4.84-14.97C96.44 34.3 86.18 47.36 83.45 66c-.82-3.27-3.92-6.58-.78-13.76-10.75 7.23-13.9 22.26-15.28 37.87z"/><path fill="#003500" d="M112.74 107.85c-6.43-22.55 5.7-36.57 21.9-41.16-28.08-.51-37.29 23.2-21.9 41.16z"/><path fill="#3e8426" d="M32.23 45.02c9.23 25.08 26.87 40.4 43.37 56.64 18.5 18.19 6.2 36.48-6.81 29.28-13.01-7.2-37.24-57.02-36.56-85.92z"/><path fill="#3e6d26" d="M65.06 87.57S34.81 63.8 35.94 35.8l1.52-10.4c10.5 16.32 21.41 37.46 33.03 42.61-3.22 8-4.28 13.11-5.43 19.55z"/><path fill="#003500" d="M156.7 41.01c.74 2.49 2.16 6.2 4.49 8.5 2.85-.93 6.08-3.13 7.6-5.4a30.2 30.2 0 00-6.49-8.8 26.32 26.32 0 01-5.6 5.7z"/></svg>